<svg width="24" height="24" viewBox="0 0 24 24" fill="none" xmlns="http://www.w3.org/2000/svg">
<g clip-path="url(#clip0)">
<path d="M9.87809 1.3934L1.3928 9.87868C0.830196 10.4413 0.514125 11.2044 0.514125 12C0.514125 12.7956 0.830196 13.5587 1.3928 14.1213L9.87809 22.6066C10.4407 23.1692 11.2038 23.4853 11.9994 23.4853C12.7951 23.4853 13.5581 23.1692 14.1207 22.6066L22.606 14.1213C23.1686 13.5587 23.4847 12.7956 23.4847 12C23.4847 11.2044 23.1686 10.4413 22.606 9.87868L14.1207 1.3934C13.5581 0.830789 12.7951 0.514719 11.9994 0.514719C11.2038 0.514719 10.4407 0.830789 9.87809 1.3934ZM21.1918 11.2929C21.3793 11.4804 21.4847 11.7348 21.4847 12C21.4847 12.2652 21.3793 12.5196 21.1918 12.7071L12.7065 21.1924C12.519 21.3799 12.2646 21.4853 11.9994 21.4853C11.7342 21.4853 11.4798 21.3799 11.2923 21.1924L2.80702 12.7071C2.61948 12.5196 2.51413 12.2652 2.51413 12C2.51413 11.7348 2.61948 11.4804 2.80702 11.2929L11.2923 2.80761C11.4798 2.62008 11.7342 2.51472 11.9994 2.51472C12.2646 2.51472 12.519 2.62008 12.7065 2.80761L21.1918 11.2929Z" fill="black"/>
<path d="M11.9989 8.16748C11.8669 8.16694 11.7361 8.19254 11.614 8.24281C11.4919 8.29308 11.381 8.36702 11.2877 8.46037C11.1943 8.55371 11.1204 8.66462 11.0701 8.78668C11.0199 8.90875 10.9943 9.03956 10.9948 9.17157L11.0019 11.003L9.17046 10.9959C8.90416 10.9959 8.64876 11.1017 8.46046 11.29C8.27216 11.4783 8.16637 11.7337 8.16637 12C8.16637 12.2663 8.27216 12.5217 8.46046 12.71C8.64876 12.8983 8.90416 13.0041 9.17046 13.0041L11.0019 12.997L10.9948 14.8284C10.9943 14.9604 11.0199 15.0912 11.0701 15.2133C11.1204 15.3354 11.1943 15.4463 11.2877 15.5396C11.381 15.633 11.4919 15.7069 11.614 15.7572C11.7361 15.8075 11.8669 15.8331 11.9989 15.8325C12.1309 15.8331 12.2617 15.8075 12.3838 15.7572C12.5058 15.7069 12.6167 15.633 12.7101 15.5396C12.8034 15.4463 12.8774 15.3354 12.9276 15.2133C12.9779 15.0912 13.0035 14.9604 13.003 14.8284L12.9959 12.997L14.8273 13.0041C14.9593 13.0046 15.0901 12.979 15.2122 12.9288C15.3343 12.8785 15.4452 12.8046 15.5385 12.7112C15.6319 12.6179 15.7058 12.507 15.7561 12.3849C15.8063 12.2628 15.8319 12.132 15.8314 12C15.8319 11.868 15.8063 11.7372 15.7561 11.6151C15.7058 11.493 15.6319 11.3821 15.5385 11.2888C15.4452 11.1954 15.3343 11.1215 15.2122 11.0712C15.0901 11.021 14.9593 10.9954 14.8273 10.9959L12.9959 11.003L13.003 9.17157C13.0035 9.03956 12.9779 8.90875 12.9276 8.78668C12.8774 8.66462 12.8034 8.55371 12.7101 8.46037C12.6167 8.36702 12.5058 8.29308 12.3838 8.24281C12.2617 8.19254 12.1309 8.16694 11.9989 8.16748V8.16748Z" fill="black"/>
</g>
<defs>
<clipPath id="clip0">
<rect width="24" height="24" fill="white"/>
</clipPath>
</defs>
</svg>
