<svg width="78" height="78" viewBox="0 0 78 78" fill="none" xmlns="http://www.w3.org/2000/svg">
<path d="M38.9968 6.47705C21.0796 6.4803 6.50008 21.0598 6.49683 38.9803C6.49683 56.9008 21.0763 71.4803 39.0001 71.4803C56.9206 71.477 71.5001 56.8975 71.5001 38.9803C71.5001 21.0598 56.9206 6.4803 38.9968 6.47705ZM39.0001 64.9803C24.6611 64.9803 12.9968 53.316 12.9968 38.9803C13.0001 24.6446 24.6643 12.9803 38.9968 12.9771C53.3358 12.9803 65.0001 24.6446 65.0001 38.9803C65.0001 53.3128 53.3358 64.977 39.0001 64.9803Z" fill="black"/>
<path d="M39.039 25.9644L26.0228 38.9806L39.039 51.9936V42.2306H52.0195V35.7306H39.039V25.9644Z" fill="black"/>
</svg>
