<svg width="78" height="78" viewBox="0 0 78 78" fill="none" xmlns="http://www.w3.org/2000/svg">
<path d="M39.0032 71.5229C56.9204 71.5197 71.4999 56.9402 71.5032 39.0197C71.5032 21.0992 56.9237 6.51971 38.9999 6.51971C21.0794 6.52296 6.49992 21.1025 6.49992 39.0197C6.49992 56.9402 21.0794 71.5197 39.0032 71.5229ZM38.9999 13.0197C53.3389 13.0197 65.0032 24.684 65.0032 39.0197C64.9999 53.3554 53.3357 65.0197 39.0032 65.0229C24.6642 65.0197 12.9999 53.3554 12.9999 39.0197C12.9999 24.6872 24.6642 13.023 38.9999 13.0197Z" fill="black"/>
<path d="M38.9609 52.0356L51.9772 39.0194L38.9609 26.0064V35.7694H25.9804L25.9804 42.2694H38.9609V52.0356Z" fill="black"/>
</svg>
