<svg width="48" height="48" viewBox="0 0 48 48" fill="none" xmlns="http://www.w3.org/2000/svg">
<path d="M40.875 22.2188H13.4484L29.8641 7.96875C30.1266 7.73906 29.9672 7.3125 29.6203 7.3125H25.4719C25.2891 7.3125 25.1156 7.37812 24.9797 7.49531L7.26564 22.8656C7.1034 23.0063 6.97328 23.1801 6.88411 23.3754C6.79493 23.5707 6.74878 23.7829 6.74878 23.9977C6.74878 24.2124 6.79493 24.4246 6.88411 24.6199C6.97328 24.8152 7.1034 24.9891 7.26564 25.1297L25.0828 40.5938C25.1531 40.6547 25.2375 40.6875 25.3266 40.6875H29.6156C29.9625 40.6875 30.1219 40.2562 29.8594 40.0312L13.4484 25.7812H40.875C41.0812 25.7812 41.25 25.6125 41.25 25.4062V22.5938C41.25 22.3875 41.0812 22.2188 40.875 22.2188Z" fill="black"/>
</svg>
