<svg width="48" height="48" viewBox="0 0 48 48" fill="none" xmlns="http://www.w3.org/2000/svg">
<path d="M7.125 25.7812L34.5516 25.7812L18.1359 40.0312C17.8734 40.2609 18.0328 40.6875 18.3797 40.6875H22.5281C22.7109 40.6875 22.8844 40.6219 23.0203 40.5047L40.7344 25.1344C40.8966 24.9937 41.0267 24.8199 41.1159 24.6246C41.2051 24.4293 41.2512 24.2171 41.2512 24.0023C41.2512 23.7876 41.2051 23.5754 41.1159 23.3801C41.0267 23.1848 40.8966 23.0109 40.7344 22.8703L22.9172 7.40625C22.8469 7.34531 22.7625 7.3125 22.6734 7.3125H18.3844C18.0375 7.3125 17.8781 7.74375 18.1406 7.96875L34.5516 22.2188L7.125 22.2187C6.91875 22.2187 6.75 22.3875 6.75 22.5937V25.4062C6.75 25.6125 6.91875 25.7812 7.125 25.7812Z" fill="black"/>
</svg>
