<svg width="110" height="76" viewBox="0 0 110 76" fill="none" xmlns="http://www.w3.org/2000/svg">
<path d="M39.2678 76L0.884894 37.6326C0.282005 36.9282 -0.0330298 36.0222 0.00274451 35.0955C0.0385188 34.1688 0.422467 33.2897 1.07786 32.634C1.73326 31.9782 2.61183 31.594 3.53801 31.5583C4.46419 31.5225 5.36976 31.8377 6.07376 32.4409L39.1942 65.5797L103.926 0.885384C104.63 0.282161 105.536 -0.0330481 106.462 0.00274603C107.388 0.0385402 108.267 0.422701 108.922 1.07846C109.578 1.73422 109.961 2.61328 109.997 3.53997C110.033 4.46667 109.718 5.37274 109.115 6.07713L39.2678 76Z" fill="#24944A"/>
</svg>
